<svg viewBox="0 0 200 200" xmlns="http://www.w3.org/2000/svg">
  <g fill="#FFFFFF">
    <path d="M90 20 Q90 10 100 10 L140 10 Q150 10 150 20 L150 60 Q150 70 140 70 L120 70 Q110 70 110 60 L110 45 Q110 35 100 35 Q90 35 90 45 Z"/>
    <path d="M180 90 Q190 90 190 100 L190 140 Q190 150 180 150 L140 150 Q130 150 130 140 L130 120 Q130 110 140 110 L155 110 Q165 110 165 100 Q165 90 155 90 Z"/>
    <path d="M110 180 Q110 190 100 190 L60 190 Q50 190 50 180 L50 140 Q50 130 60 130 L80 130 Q90 130 90 140 L90 155 Q90 165 100 165 Q110 165 110 155 Z"/>
    <path d="M20 110 Q10 110 10 100 L10 60 Q10 50 20 50 L60 50 Q70 50 70 60 L70 80 Q70 90 60 90 L45 90 Q35 90 35 100 Q35 110 45 110 Z"/>
  </g>
</svg>
